<?xml version="1.0" encoding="UTF-8" standalone="no"?><svg xmlns="http://www.w3.org/2000/svg" xmlns:xlink="http://www.w3.org/1999/xlink" contentScriptType="application/ecmascript" contentStyleType="text/css" height="275px" preserveAspectRatio="none" style="width:411px;height:275px;" version="1.1" viewBox="0 0 411 275" width="411px" zoomAndPan="magnify"><defs><filter height="300%" id="f1isg4ytuo6s7i" width="300%" x="-1" y="-1"><feGaussianBlur result="blurOut" stdDeviation="2.0"/><feColorMatrix in="blurOut" result="blurOut2" type="matrix" values="0 0 0 0 0 0 0 0 0 0 0 0 0 0 0 0 0 0 .4 0"/><feOffset dx="4.0" dy="4.0" in="blurOut2" result="blurOut3"/><feBlend in="SourceGraphic" in2="blurOut3" mode="normal"/></filter></defs><g><line style="stroke:#A80036;stroke-width:1.0;stroke-dasharray:5.0,5.0;" x1="33" x2="33" y1="40.2969" y2="231.9609"/><line style="stroke:#A80036;stroke-width:1.0;stroke-dasharray:5.0,5.0;" x1="204" x2="204" y1="40.2969" y2="231.9609"/><line style="stroke:#A80036;stroke-width:1.0;stroke-dasharray:5.0,5.0;" x1="374.5" x2="374.5" y1="40.2969" y2="231.9609"/><rect fill="#FEFECE" filter="url(#f1isg4ytuo6s7i)" height="30.2969" style="stroke:#A80036;stroke-width:1.5;" width="53" x="5" y="5"/><text fill="#000000" font-family="sans-serif" font-size="14" lengthAdjust="spacing" textLength="39" x="12" y="24.9951">Client</text><rect fill="#FEFECE" filter="url(#f1isg4ytuo6s7i)" height="30.2969" style="stroke:#A80036;stroke-width:1.5;" width="53" x="5" y="230.9609"/><text fill="#000000" font-family="sans-serif" font-size="14" lengthAdjust="spacing" textLength="39" x="12" y="250.9561">Client</text><rect fill="#FEFECE" filter="url(#f1isg4ytuo6s7i)" height="30.2969" style="stroke:#A80036;stroke-width:1.5;" width="61" x="172" y="5"/><text fill="#000000" font-family="sans-serif" font-size="14" lengthAdjust="spacing" textLength="47" x="179" y="24.9951">Master</text><rect fill="#FEFECE" filter="url(#f1isg4ytuo6s7i)" height="30.2969" style="stroke:#A80036;stroke-width:1.5;" width="61" x="172" y="230.9609"/><text fill="#000000" font-family="sans-serif" font-size="14" lengthAdjust="spacing" textLength="47" x="179" y="250.9561">Master</text><rect fill="#FEFECE" filter="url(#f1isg4ytuo6s7i)" height="30.2969" style="stroke:#A80036;stroke-width:1.5;" width="50" x="347.5" y="5"/><text fill="#000000" font-family="sans-serif" font-size="14" lengthAdjust="spacing" textLength="36" x="354.5" y="24.9951">Slave</text><rect fill="#FEFECE" filter="url(#f1isg4ytuo6s7i)" height="30.2969" style="stroke:#A80036;stroke-width:1.5;" width="50" x="347.5" y="230.9609"/><text fill="#000000" font-family="sans-serif" font-size="14" lengthAdjust="spacing" textLength="36" x="354.5" y="250.9561">Slave</text><polygon fill="#A80036" points="192.5,67.4297,202.5,71.4297,192.5,75.4297,196.5,71.4297" style="stroke:#A80036;stroke-width:1.0;"/><line style="stroke:#A80036;stroke-width:1.0;" x1="33.5" x2="198.5" y1="71.4297" y2="71.4297"/><text fill="#000000" font-family="sans-serif" font-size="13" lengthAdjust="spacing" textLength="147" x="40.5" y="66.3638">写命令请求（set/del等）</text><line style="stroke:#A80036;stroke-width:1.0;" x1="204.5" x2="246.5" y1="100.5625" y2="100.5625"/><line style="stroke:#A80036;stroke-width:1.0;" x1="246.5" x2="246.5" y1="100.5625" y2="113.5625"/><line style="stroke:#A80036;stroke-width:1.0;" x1="205.5" x2="246.5" y1="113.5625" y2="113.5625"/><polygon fill="#A80036" points="215.5,109.5625,205.5,113.5625,215.5,117.5625,211.5,113.5625" style="stroke:#A80036;stroke-width:1.0;"/><text fill="#000000" font-family="sans-serif" font-size="13" lengthAdjust="spacing" textLength="52" x="211.5" y="95.4966">执行命令</text><polygon fill="#A80036" points="44.5,138.6953,34.5,142.6953,44.5,146.6953,40.5,142.6953" style="stroke:#A80036;stroke-width:1.0;"/><line style="stroke:#A80036;stroke-width:1.0;" x1="38.5" x2="203.5" y1="142.6953" y2="142.6953"/><text fill="#000000" font-family="sans-serif" font-size="13" lengthAdjust="spacing" textLength="26" x="50.5" y="137.6294">响应</text><line style="stroke:#A80036;stroke-width:1.0;" x1="204.5" x2="246.5" y1="171.8281" y2="171.8281"/><line style="stroke:#A80036;stroke-width:1.0;" x1="246.5" x2="246.5" y1="171.8281" y2="184.8281"/><line style="stroke:#A80036;stroke-width:1.0;" x1="205.5" x2="246.5" y1="184.8281" y2="184.8281"/><polygon fill="#A80036" points="215.5,180.8281,205.5,184.8281,215.5,188.8281,211.5,184.8281" style="stroke:#A80036;stroke-width:1.0;"/><text fill="#000000" font-family="sans-serif" font-size="13" lengthAdjust="spacing" textLength="156" x="211.5" y="166.7622">命令追加至复制积压缓冲区</text><polygon fill="#A80036" points="362.5,209.9609,372.5,213.9609,362.5,217.9609,366.5,213.9609" style="stroke:#A80036;stroke-width:1.0;"/><line style="stroke:#A80036;stroke-width:1.0;" x1="204.5" x2="368.5" y1="213.9609" y2="213.9609"/><text fill="#000000" font-family="sans-serif" font-size="13" lengthAdjust="spacing" textLength="130" x="211.5" y="208.895">发送命令，写入即返回</text></g></svg>